<svg xmlns="http://www.w3.org/2000/svg" width="512" height="512" viewBox="0 0 512 512" version="1.1"><path d="M 346 150.474 L 346 166 361.526 166 L 377.052 166 376.776 150.750 L 376.500 135.500 361.250 135.224 L 346 134.948 346 150.474 M 346 360.474 L 346 376 361.526 376 L 377.052 376 376.776 360.750 L 376.500 345.500 361.250 345.224 L 346 344.948 346 360.474" stroke="none" fill="#ffbe00" fill-rule="evenodd"/><path d="M 136 150.474 L 136 166 151.526 166 L 167.052 166 166.776 150.750 L 166.500 135.500 151.250 135.224 L 136 134.948 136 150.474 M 136 360.474 L 136 376 151.526 376 L 167.052 376 166.776 360.750 L 166.500 345.500 151.250 345.224 L 136 344.948 136 360.474" stroke="none" fill="#ffd82c" fill-rule="evenodd"/><path d="M -0 150.445 L 0 301 105.500 301 L 211 301 211 361.479 L 211 421.959 120.728 422.229 L 30.456 422.500 23.716 425.819 C 15.242 429.991, 7.965 437.295, 3.742 445.869 L 0.500 452.450 0.195 482.225 L -0.110 512 127.945 512 L 256 512 256 256 L 256 0 233.500 0 L 211 0 211 105.500 L 211 211 150.521 211 L 90.041 211 89.771 120.728 L 89.500 30.456 86.068 23.486 C 81.799 14.816, 75.104 8.162, 66.270 3.810 L 59.550 0.500 29.775 0.195 L -0 -0.110 -0 150.445" stroke="none" fill="#ff6648" fill-rule="evenodd"/><path d="M 256 256 L 256 512 278.500 512 L 301 512 301 406.500 L 301 301 361.500 301 L 422 301 422.033 384.750 C 422.051 430.813, 422.453 471.506, 422.927 475.179 C 425.331 493.814, 440.115 508.663, 458.640 511.051 C 462.413 511.537, 475.962 511.949, 488.750 511.967 L 512 512 512 361.500 L 512 211 406.500 211 L 301 211 301 150.500 L 301 90 384.750 89.967 C 430.813 89.949, 471.506 89.547, 475.179 89.073 C 493.814 86.669, 508.663 71.885, 511.051 53.360 C 511.537 49.587, 511.949 36.038, 511.967 23.250 L 512 0 384 0 L 256 0 256 256" stroke="none" fill="#db4242" fill-rule="evenodd"/><path d="M 511.272 53 C 511.272 55.475, 511.467 56.487, 511.706 55.250 C 511.944 54.013, 511.944 51.987, 511.706 50.750 C 511.467 49.513, 511.272 50.525, 511.272 53 M 510.069 59 C 509.878 62.229, 504.933 71.117, 500.884 75.510 C 495.460 81.394, 492.089 83.774, 485.108 86.646 C 482.023 87.914, 480.216 88.963, 481.090 88.976 C 484.401 89.026, 495.320 82.585, 500.201 77.703 C 505.326 72.579, 511.633 61.164, 510.667 58.764 C 510.311 57.881, 510.131 57.953, 510.069 59 M 472.750 89.706 C 473.988 89.944, 476.012 89.944, 477.250 89.706 C 478.488 89.467, 477.475 89.272, 475 89.272 C 472.525 89.272, 471.512 89.467, 472.750 89.706 M 422.272 475 C 422.272 477.475, 422.467 478.488, 422.706 477.250 C 422.944 476.012, 422.944 473.988, 422.706 472.750 C 422.467 471.512, 422.272 472.525, 422.272 475 M 425.012 486.290 C 424.978 488.515, 429.669 495.691, 433.924 499.924 C 438.593 504.569, 449.682 511.024, 452.910 510.976 C 453.784 510.963, 451.977 509.914, 448.892 508.646 C 439.659 504.847, 432.405 498.502, 427.579 490 C 426.174 487.525, 425.019 485.855, 425.012 486.290 M 456.750 511.706 C 457.988 511.944, 460.012 511.944, 461.250 511.706 C 462.488 511.467, 461.475 511.272, 459 511.272 C 456.525 511.272, 455.512 511.467, 456.750 511.706" stroke="none" fill="#dc4444" fill-rule="evenodd"/><path d="" stroke="none" fill="#fc644b" fill-rule="evenodd"/></svg>