<svg xmlns="http://www.w3.org/2000/svg" width="512" height="512" viewBox="0 0 512 512" version="1.1"><path d="M 130.250 102.689 C 131.213 102.941, 132.787 102.941, 133.750 102.689 C 134.713 102.438, 133.925 102.232, 132 102.232 C 130.075 102.232, 129.287 102.438, 130.250 102.689 M 102.232 132 C 102.232 133.925, 102.438 134.713, 102.689 133.750 C 102.941 132.787, 102.941 131.213, 102.689 130.250 C 102.438 129.287, 102.232 130.075, 102.232 132 M 488.559 311.905 C 487.469 313.669, 472.380 321.947, 465.612 324.494 C 461.835 325.916, 451.490 329.109, 442.623 331.589 C 403.846 342.438, 392.734 347.561, 385.577 357.889 C 382.900 361.752, 382.812 364, 385.337 364 C 387.530 364, 401.093 370.938, 406.998 375.079 L 412.772 379.130 424.720 373.140 C 439.980 365.491, 448.596 362, 452.218 362 C 456.348 362, 460 365.990, 460 370.502 C 460 375.128, 457.191 377.747, 448.849 380.898 C 441.611 383.633, 425 391.751, 425 392.554 C 425 392.848, 427.384 397.934, 430.298 403.857 C 433.212 409.780, 436.699 418.308, 438.048 422.808 C 439.750 428.487, 440.976 430.992, 442.056 430.995 C 445.861 431.007, 456.835 426.330, 463.570 421.825 C 473.514 415.174, 480.239 407.403, 485.484 396.500 C 493.398 380.053, 496.224 360.857, 494.196 337.329 C 492.345 315.862, 490.700 308.441, 488.559 311.905 M 273.272 382 C 273.272 384.475, 273.467 385.488, 273.706 384.250 C 273.944 383.012, 273.944 380.988, 273.706 379.750 C 273.467 378.512, 273.272 379.525, 273.272 382 M 403.500 395 C 405.648 397.200, 407.631 399, 407.906 399 C 408.181 399, 406.648 397.200, 404.500 395 C 402.352 392.800, 400.369 391, 400.094 391 C 399.819 391, 401.352 392.800, 403.500 395 M 273.286 401.500 C 273.294 404.250, 273.488 405.256, 273.718 403.736 C 273.947 402.216, 273.941 399.966, 273.704 398.736 C 273.467 397.506, 273.279 398.750, 273.286 401.500 M 427.405 468.750 C 429.485 471.207, 431 471.663, 431 469.833 C 431 469.192, 430.699 468.968, 430.331 469.336 C 429.963 469.703, 428.726 469.216, 427.581 468.252 C 425.502 466.501, 425.502 466.502, 427.405 468.750 M 359.750 494.723 C 361.538 494.945, 364.462 494.945, 366.250 494.723 C 368.038 494.502, 366.575 494.320, 363 494.320 C 359.425 494.320, 357.962 494.502, 359.750 494.723 M 374.264 494.718 C 375.784 494.947, 378.034 494.941, 379.264 494.704 C 380.494 494.467, 379.250 494.279, 376.500 494.286 C 373.750 494.294, 372.744 494.488, 374.264 494.718" stroke="none" fill="#87ad46" fill-rule="evenodd"/><path d="M 278.150 346.750 C 274.866 362.100, 273.800 375.838, 274.289 396.500 C 274.722 414.792, 275.122 418.831, 277.394 427.818 C 282.807 449.233, 293.447 465.977, 309 477.557 C 315.150 482.137, 327.789 487.979, 337.285 490.632 C 345.037 492.798, 349.288 493.289, 364.058 493.723 C 374.874 494.041, 385.049 493.788, 390.558 493.064 C 401.320 491.650, 419.223 488.080, 420.208 487.151 C 420.999 486.406, 407.984 474.883, 395 464.835 C 376.652 450.635, 349.141 434.488, 337.278 430.957 C 332.304 429.476, 329.266 426.909, 328.399 423.453 C 327.471 419.758, 329.854 415.037, 333.531 413.284 C 336.512 411.862, 337.240 411.914, 343.622 414.005 C 363.624 420.558, 393.571 439.310, 420.887 462.387 L 430.275 470.317 429.572 465.408 C 424.957 433.187, 415.265 407.080, 403.581 395.396 C 393.234 385.049, 385.216 381.623, 341.776 368.988 C 309.230 359.522, 300.905 356.197, 287.833 347.448 C 283.356 344.452, 279.575 342, 279.430 342 C 279.285 342, 278.708 344.137, 278.150 346.750" stroke="none" fill="#93c14d" fill-rule="evenodd"/><path d="M 116.500 1.555 C 96.938 4.861, 77.853 12.333, 61.718 23.004 C 42.458 35.741, 38.787 40.941, 44.806 46.960 C 49.550 51.704, 52.226 51.124, 63.115 42.989 C 79.052 31.084, 97.913 22.568, 116.500 18.887 C 127.974 16.614, 155.792 17.125, 171.500 19.897 C 228.271 29.916, 272.680 59.835, 302.967 108.469 C 315.630 128.801, 328.989 162.879, 334.340 188.500 C 345.708 242.918, 343.403 290.655, 327.317 334 C 325.378 339.225, 323.404 343.912, 322.931 344.415 C 322.163 345.231, 309.856 340.860, 307.718 339.012 C 307.289 338.641, 308.528 334.169, 310.472 329.074 C 315.080 316.998, 315.577 313.496, 313.631 306.804 C 311.282 298.724, 306.785 294.703, 292.532 287.943 C 254.716 270.007, 205.448 256.846, 154.500 251.072 C 132.973 248.632, 127.468 249.547, 120.864 256.661 C 114.648 263.357, 113.128 270.216, 115.342 281.580 C 117.853 294.465, 118.212 300.982, 117.012 311.887 C 115.395 326.586, 111.995 337.476, 104.005 353.551 C 95.538 370.583, 93 379.682, 93 393 C 93 412.261, 99.074 427.092, 112.488 440.584 C 125.523 453.695, 140.704 460.054, 159.005 460.068 C 187.086 460.090, 219.302 445.056, 250.900 417.182 C 256.614 412.141, 256.952 411.985, 257.387 414.182 C 257.639 415.457, 258.471 420.012, 259.237 424.304 L 260.628 432.109 251.564 439.442 C 222.605 462.870, 191.861 476.224, 163.480 477.701 C 129.185 479.486, 98.234 460.845, 83.452 429.500 C 76.996 415.810, 75.549 408.969, 75.630 392.500 C 75.718 374.481, 77.584 367.409, 87.507 347.500 C 97.405 327.641, 99.279 320.539, 99.380 302.500 C 99.446 290.770, 99.089 287.203, 97.178 280.500 C 92.246 263.202, 81.554 246.645, 68.779 236.526 C 59.266 228.990, 42.864 212.264, 38.201 205.344 C 24.622 185.191, 17 160.781, 17 137.441 C 17 114.231, 21.860 96.616, 34.573 73.747 C 37.469 68.537, 37.333 66.101, 33.920 62.050 C 31.157 58.771, 25.977 58.734, 22.534 61.969 C 18.875 65.406, 10.546 82.193, 6.563 94.160 C 1.823 108.399, 0.006 119.995, 0.007 136 C 0.009 179.223, 17.325 215.836, 51.189 244.218 C 66.067 256.688, 70.140 261.412, 75.538 272.459 C 83.149 288.035, 84.742 303.491, 80.462 320.228 C 79.581 323.678, 75.794 332.575, 72.049 340 C 60.664 362.568, 57.225 377.340, 58.316 399 C 60.556 443.454, 90.469 479.915, 134.825 492.255 C 141.331 494.065, 145.166 494.389, 160 494.378 C 176.495 494.366, 178.177 494.183, 189.288 491.190 C 213.630 484.634, 238.868 471.723, 259.048 455.503 L 265.596 450.240 269.954 458.751 C 284.851 487.843, 312.145 506.195, 347.694 511.021 C 359.341 512.602, 389.863 511.790, 403 509.550 C 416.148 507.308, 431.331 503.382, 435.932 501.035 C 440.856 498.523, 446.350 492.112, 447.839 487.142 C 449.699 480.935, 448.989 470.136, 445.526 451.939 L 444.848 448.378 450.052 447.177 C 457.487 445.461, 470.468 439.086, 477.719 433.590 C 493.378 421.723, 503.948 404.339, 509.277 381.690 C 511.166 373.663, 511.439 369.589, 511.435 349.500 C 511.430 329.911, 511.096 324.720, 509.185 314.500 C 506.295 299.050, 505.564 296.915, 501.999 293.499 C 499.714 291.310, 497.849 290.572, 493.772 290.243 C 489.082 289.864, 488.058 290.157, 484.500 292.892 C 468.321 305.327, 464.259 307.275, 440.500 313.992 C 392.397 327.593, 380.261 333.838, 369.417 350.568 C 367.303 353.831, 365.524 356.607, 365.465 356.738 C 365.349 356.993, 340.667 349.990, 340.257 349.586 C 340.123 349.454, 341.403 345.556, 343.102 340.923 C 358.900 297.844, 362.538 255.317, 354.945 202.500 C 338.962 91.321, 267.593 16.378, 163.500 1.469 C 151.160 -0.299, 127.211 -0.255, 116.500 1.555 M 127 35.059 C 109.037 37.089, 90.023 44.740, 75.329 55.851 C 47.961 76.546, 32.042 111.277, 35.088 143.648 C 38.069 175.343, 55.786 206.497, 80.684 223.826 C 87.221 228.376, 91.483 229.162, 114.500 230.064 C 172.366 232.333, 224.553 242.560, 275.500 261.616 C 300.568 270.993, 302.794 271.273, 312.208 266.243 C 321.636 261.206, 324.516 253.512, 323.502 236.069 C 320.160 178.571, 302.283 130.838, 270.600 94.813 C 253.244 75.078, 227.671 57.396, 201.383 46.953 C 178.331 37.796, 147.047 32.794, 127 35.059 M 122.500 52.503 C 94.474 57.799, 71.210 76.016, 59.089 102.156 C 53.305 114.631, 51.554 122.520, 51.578 136 C 51.593 144.632, 52.154 149.620, 53.826 156 C 56.597 166.566, 64.215 182.511, 70.407 190.700 C 76.068 198.188, 87.770 209.206, 92.247 211.265 C 94.565 212.331, 100.959 212.954, 114.500 213.433 C 178.411 215.693, 232.531 227.061, 296.292 251.617 C 300.641 253.292, 301.336 253.323, 303.792 251.948 C 306.191 250.606, 306.537 249.753, 306.824 244.467 C 307.264 236.347, 305.342 215.277, 302.922 201.688 C 289.513 126.413, 243.223 73.575, 175.313 56.028 C 157.063 51.312, 136.180 49.918, 122.500 52.503 M 117.762 87.889 C 103.101 92.711, 91.730 104.534, 87.468 119.387 C 86.232 123.693, 85.883 127.886, 86.169 134.999 C 86.522 143.789, 86.916 145.445, 90.261 152.214 C 100.244 172.412, 122.431 182.946, 143.458 177.469 C 160.474 173.037, 173.052 160.417, 177.508 143.307 C 182.953 122.404, 172.449 100.262, 152.385 90.346 C 145.070 86.730, 144.061 86.505, 134.072 86.260 C 125.872 86.059, 122.213 86.424, 117.762 87.889 M 123.396 103.358 C 109.971 107.757, 100.729 121.624, 102.313 134.994 C 105.236 159.677, 133.634 170.740, 152.692 154.620 C 154.448 153.135, 157.260 149.166, 158.942 145.800 C 164.514 134.650, 162.737 121.372, 154.437 112.142 C 147.029 103.901, 133.457 100.061, 123.396 103.358 M 133 268 C 130.633 270.367, 130.577 271.941, 132.485 282.500 C 135.369 298.461, 133.913 321.162, 128.954 337.558 C 127.799 341.376, 123.294 351.925, 118.941 361 C 112.484 374.463, 110.817 378.941, 109.881 385.330 C 107.902 398.833, 111.322 412.632, 119.249 423.130 C 127.659 434.268, 138.408 440.898, 151.740 443.170 C 165.297 445.480, 182.528 441.429, 202 431.354 C 216.957 423.615, 229.559 414.298, 243.735 400.500 L 256.063 388.500 257.079 375 C 258.187 360.265, 261.174 340.478, 263.518 332.337 C 266.922 320.519, 278.837 317.650, 288.668 326.282 C 292.782 329.893, 292.928 329.767, 296.178 319.797 C 299.739 308.876, 299.529 308.693, 269.358 296.474 C 233.646 282.011, 193.307 271.885, 154 267.519 C 136.592 265.585, 135.387 265.613, 133 268 M 485 314.189 C 475.486 320.603, 462.423 325.844, 440.989 331.847 C 402.281 342.687, 393.059 347.033, 384.914 358.277 C 381.691 362.726, 381.790 363.480, 385.729 364.468 C 389.811 365.493, 401.831 371.705, 407.252 375.592 C 409.866 377.467, 412.419 379, 412.926 379 C 413.432 379, 417.163 377.211, 421.216 375.025 C 429.438 370.590, 449.441 362, 451.546 362 C 455.865 362, 460 366.359, 460 370.912 C 460 373.987, 456.332 377.603, 451.299 379.490 C 448.660 380.479, 441.476 383.715, 435.335 386.681 L 424.170 392.073 429.509 402.786 C 432.445 408.679, 436.074 417.325, 437.572 422 C 439.070 426.675, 440.464 430.810, 440.670 431.190 C 441.283 432.322, 451.006 429.061, 458.500 425.210 C 466.899 420.894, 480.079 408.153, 484.305 400.264 C 493.829 382.484, 497.138 356.662, 493.575 327.933 C 492.012 315.334, 491.121 310.959, 490.142 311.078 C 489.789 311.121, 487.475 312.521, 485 314.189 M 276.643 350.750 C 271.727 379.576, 271.732 407.697, 276.656 428 C 285.145 463.002, 307.444 484.896, 342.500 492.648 C 352.242 494.802, 375.331 495.518, 388.035 494.060 C 398.876 492.817, 420.796 488.538, 421.880 487.453 C 423.202 486.132, 394.491 462.824, 377.872 451.728 C 364.740 442.960, 347.378 433.642, 338.135 430.402 C 335.184 429.368, 331.921 427.444, 330.885 426.126 C 327.122 421.343, 329.459 414.927, 335.516 413.407 C 338.809 412.580, 347.247 415.596, 361.500 422.693 C 379.682 431.747, 405.370 449.587, 424.373 466.358 L 431.246 472.424 430.528 466.962 C 427.702 445.470, 419.836 418.612, 412.711 406.128 C 402.427 388.109, 390.556 381.841, 339.495 367.467 C 308.407 358.716, 298.021 354.389, 285.293 344.887 C 282.429 342.749, 279.685 341, 279.196 341 C 278.706 341, 277.557 345.387, 276.643 350.750" stroke="none" fill="#373737" fill-rule="evenodd"/><path d="M 119.290 105.976 C 112.190 109.566, 108.722 113.233, 105.218 120.857 C 103.093 125.480, 102.818 127.262, 103.212 133.857 C 103.911 145.562, 109.264 153.605, 120 159.085 C 126.862 162.587, 137.612 162.427, 145.182 158.710 C 155.944 153.425, 161.499 144.291, 161.426 132 C 161.375 123.387, 159.195 118.033, 153.144 111.665 C 147.549 105.777, 142.746 103.718, 133.500 103.245 C 126.099 102.866, 125.035 103.070, 119.290 105.976" stroke="none" fill="#f4d1a6" fill-rule="evenodd"/><path d="M 144.250 17.689 C 145.213 17.941, 146.787 17.941, 147.750 17.689 C 148.713 17.438, 147.925 17.232, 146 17.232 C 144.075 17.232, 143.287 17.438, 144.250 17.689 M 130 52.064 C 96.232 55.064, 66.215 79.060, 55.653 111.500 C 45.723 141.996, 55.843 177.406, 81.646 202.459 C 91.529 212.055, 92.056 212.217, 116.174 213.116 C 176.158 215.350, 229.488 226.010, 285.275 246.916 C 300.675 252.687, 303.276 253.034, 305.515 249.617 C 306.881 247.532, 306.942 245.335, 305.999 231.990 C 300.485 153.916, 267.465 98.231, 209.500 69.253 C 184.096 56.553, 153.627 49.966, 130 52.064 M 63.437 65.250 L 60.500 68.500 63.750 65.563 C 65.537 63.948, 67 62.485, 67 62.313 C 67 61.540, 66.175 62.221, 63.437 65.250 M 121.335 86.423 C 96.272 92.501, 80.125 118.863, 86.492 143.307 C 89.615 155.299, 96.882 165.382, 107.213 172.059 C 115.417 177.362, 123.628 179.342, 135.293 178.832 C 143.812 178.460, 145.547 178.034, 152.450 174.622 C 162.496 169.657, 169.657 162.496, 174.622 152.450 C 178.034 145.547, 178.460 143.812, 178.832 135.293 C 179.343 123.611, 177.357 115.396, 172.045 107.221 C 160.821 89.949, 140.746 81.715, 121.335 86.423 M 114.250 230.689 C 115.213 230.941, 116.787 230.941, 117.750 230.689 C 118.713 230.438, 117.925 230.232, 116 230.232 C 114.075 230.232, 113.287 230.438, 114.250 230.689 M 132.541 269.297 C 130.945 271.734, 130.948 272.373, 132.595 280.193 C 134.729 290.320, 134.979 311.240, 133.095 322 C 131.009 333.913, 126.261 347.488, 119.358 361.273 C 111.895 376.179, 110 382.602, 110 393 C 110 421.435, 131.340 443, 159.477 443 C 185.631 443, 218.499 425.674, 247.250 396.731 L 256 387.923 256 382.705 C 256 368.487, 261.855 332.612, 265.010 327.500 C 269.931 319.526, 281.900 318.707, 288.407 325.898 C 289.454 327.054, 290.870 328, 291.554 328 C 292.237 328, 294.037 324.600, 295.553 320.445 C 298.307 312.892, 298.308 312.889, 296.358 310.278 C 292.860 305.592, 255.702 290.642, 227.273 282.482 C 200.515 274.802, 166.932 268.598, 145.368 267.352 L 134.237 266.709 132.541 269.297 M 100.300 302 C 100.300 305.025, 100.487 306.262, 100.716 304.750 C 100.945 303.238, 100.945 300.762, 100.716 299.250 C 100.487 297.738, 100.300 298.975, 100.300 302 M 75.252 393.500 C 75.263 395.700, 75.468 396.482, 75.707 395.238 C 75.946 393.994, 75.937 392.194, 75.687 391.238 C 75.437 390.282, 75.241 391.300, 75.252 393.500 M 160.762 477.707 C 162.006 477.946, 163.806 477.937, 164.762 477.687 C 165.718 477.437, 164.700 477.241, 162.500 477.252 C 160.300 477.263, 159.518 477.468, 160.762 477.707" stroke="none" fill="#a04657" fill-rule="evenodd"/><path d="M 127 18.072 C 103.578 20.430, 80.897 29.759, 61.317 45.088 C 53.830 50.950, 51.292 51.719, 46.914 49.455 C 43.218 47.544, 44.376 46.738, 36.051 57.016 C 33.222 60.509, 33.215 60.548, 35.101 62.877 C 38.006 66.464, 37.407 70.349, 32.647 78.785 C 13.284 113.104, 12.398 154.572, 30.260 190.500 C 38.132 206.333, 48.337 218.955, 62.930 230.906 C 82.433 246.880, 92.051 260.331, 97.320 279 C 103.696 301.593, 101.136 321.217, 88.477 346.783 C 79.001 365.923, 76.966 372.980, 76.282 389.073 C 75.660 403.705, 77.327 414.101, 82.159 425.720 C 92.929 451.619, 116.477 470.773, 144 476.025 C 151.999 477.551, 168.249 477.295, 177.727 475.495 C 201.215 471.032, 228.241 457.652, 251.232 439.104 C 255.485 435.673, 259.141 432.559, 259.357 432.183 C 259.572 431.807, 259.001 427.259, 258.087 422.076 L 256.424 412.652 249.694 418.751 C 219.665 445.964, 183.172 462.234, 155.500 460.747 C 131.597 459.462, 110.050 445.201, 99.548 423.715 C 93.729 411.809, 91.503 400.970, 92.321 388.519 C 93.077 377.015, 95.841 368.060, 102.512 355.500 C 115.130 331.744, 119.540 307.945, 115.485 285.500 C 112.803 270.659, 113.784 263.975, 119.672 256.978 C 123.419 252.525, 131.260 249.022, 137.506 249.010 C 156.798 248.972, 205.809 257.657, 236.734 266.594 C 265.939 275.033, 300.819 289.597, 307.872 296.297 C 315.949 303.969, 317.038 313.487, 311.500 328 C 309.575 333.044, 308 337.540, 308 337.990 C 308 338.439, 311.251 340.165, 315.224 341.824 L 322.448 344.839 323.783 341.670 C 340.639 301.629, 345.034 253.836, 336.498 203.401 C 318.806 98.872, 256.317 32.095, 164.500 19.604 C 149.460 17.558, 137.109 17.054, 127 18.072 M 123.500 34.717 C 121.850 34.947, 117.045 36.005, 112.823 37.070 C 76.107 46.326, 46.793 75.502, 37.035 112.500 C 28.037 146.620, 40.555 186.943, 68.607 214.197 C 83.765 228.924, 84.134 229.053, 115.365 230.629 C 177.905 233.784, 225.625 243.387, 279.393 263.638 C 298.044 270.663, 303.340 271.422, 310.500 268.100 C 315.443 265.807, 320.399 260.698, 322.449 255.782 C 324.480 250.914, 324.496 234.726, 322.488 217.558 C 314.547 149.676, 284.891 96.878, 236.797 65.001 C 212.537 48.921, 187.977 39.506, 159.870 35.511 C 150.318 34.153, 130.641 33.724, 123.500 34.717" stroke="none" fill="#c75869" fill-rule="evenodd"/><path d="M 273.310 391.500 C 273.315 394.800, 273.502 396.029, 273.725 394.232 C 273.947 392.435, 273.943 389.735, 273.715 388.232 C 273.486 386.729, 273.304 388.200, 273.310 391.500" stroke="none" fill="#8ebc49" fill-rule="evenodd"/><path d="M 143.762 34.707 C 145.006 34.946, 146.806 34.937, 147.762 34.687 C 148.718 34.437, 147.700 34.241, 145.500 34.252 C 143.300 34.263, 142.518 34.468, 143.762 34.707 M 130.750 51.706 C 131.988 51.944, 134.012 51.944, 135.250 51.706 C 136.488 51.467, 135.475 51.272, 133 51.272 C 130.525 51.272, 129.512 51.467, 130.750 51.706 M 142.264 51.718 C 143.784 51.947, 146.034 51.941, 147.264 51.704 C 148.494 51.467, 147.250 51.279, 144.500 51.286 C 141.750 51.294, 140.744 51.488, 142.264 51.718 M 276.500 75 C 278.648 77.200, 280.631 79, 280.906 79 C 281.181 79, 279.648 77.200, 277.500 75 C 275.352 72.800, 273.369 71, 273.094 71 C 272.819 71, 274.352 72.800, 276.500 75 M 128.728 85.722 C 130.503 85.943, 133.653 85.946, 135.728 85.730 C 137.802 85.513, 136.350 85.333, 132.500 85.328 C 128.650 85.324, 126.952 85.501, 128.728 85.722 M 252 99.500 C 253.866 101.425, 255.617 103, 255.892 103 C 256.167 103, 254.866 101.425, 253 99.500 C 251.134 97.575, 249.383 96, 249.108 96 C 248.833 96, 250.134 97.575, 252 99.500 M 85.328 132.500 C 85.333 136.350, 85.513 137.802, 85.730 135.728 C 85.946 133.653, 85.943 130.503, 85.722 128.728 C 85.501 126.952, 85.324 128.650, 85.328 132.500 M 51.252 131.500 C 51.263 133.700, 51.468 134.482, 51.707 133.238 C 51.946 131.994, 51.937 130.194, 51.687 129.238 C 51.437 128.282, 51.241 129.300, 51.252 131.500 M 51.252 139.500 C 51.263 141.700, 51.468 142.482, 51.707 141.238 C 51.946 139.994, 51.937 138.194, 51.687 137.238 C 51.437 136.282, 51.241 137.300, 51.252 139.500 M 34.232 140 C 34.232 141.925, 34.438 142.713, 34.689 141.750 C 34.941 140.787, 34.941 139.213, 34.689 138.250 C 34.438 137.287, 34.232 138.075, 34.232 140 M 120.250 213.716 C 121.763 213.945, 124.237 213.945, 125.750 213.716 C 127.263 213.487, 126.025 213.300, 123 213.300 C 119.975 213.300, 118.737 213.487, 120.250 213.716 M 120.750 230.706 C 121.987 230.944, 124.013 230.944, 125.250 230.706 C 126.487 230.467, 125.475 230.272, 123 230.272 C 120.525 230.272, 119.513 230.467, 120.750 230.706 M 306.286 235.500 C 306.294 238.250, 306.488 239.256, 306.718 237.736 C 306.947 236.216, 306.941 233.966, 306.704 232.736 C 306.467 231.506, 306.279 232.750, 306.286 235.500 M 323.232 234 C 323.232 235.925, 323.438 236.713, 323.689 235.750 C 323.941 234.787, 323.941 233.213, 323.689 232.250 C 323.438 231.287, 323.232 232.075, 323.232 234 M 341.320 254 C 341.320 257.575, 341.502 259.038, 341.723 257.250 C 341.945 255.463, 341.945 252.537, 341.723 250.750 C 341.502 248.963, 341.320 250.425, 341.320 254 M 137.264 266.718 C 138.784 266.947, 141.034 266.941, 142.264 266.704 C 143.494 266.467, 142.250 266.279, 139.500 266.286 C 136.750 266.294, 135.744 266.488, 137.264 266.718 M 134.336 302 C 134.336 306.125, 134.513 307.813, 134.728 305.750 C 134.944 303.688, 134.944 300.313, 134.728 298.250 C 134.513 296.188, 134.336 297.875, 134.336 302 M 117.310 301.500 C 117.315 304.800, 117.502 306.029, 117.725 304.232 C 117.947 302.435, 117.943 299.735, 117.715 298.232 C 117.486 296.729, 117.304 298.200, 117.310 301.500 M 256.286 378.500 C 256.294 381.250, 256.488 382.256, 256.718 380.736 C 256.947 379.216, 256.941 376.966, 256.704 375.736 C 256.467 374.506, 256.279 375.750, 256.286 378.500 M 75.232 387 C 75.232 388.925, 75.438 389.712, 75.689 388.750 C 75.941 387.788, 75.941 386.212, 75.689 385.250 C 75.438 384.288, 75.232 385.075, 75.232 387 M 92.300 393 C 92.300 396.025, 92.487 397.262, 92.716 395.750 C 92.945 394.238, 92.945 391.762, 92.716 390.250 C 92.487 388.738, 92.300 389.975, 92.300 393 M 109.300 393 C 109.300 396.025, 109.487 397.262, 109.716 395.750 C 109.945 394.238, 109.945 391.762, 109.716 390.250 C 109.487 388.738, 109.300 389.975, 109.300 393 M 237.946 405.750 L 234.500 409.500 238.250 406.054 C 241.740 402.846, 242.460 402, 241.696 402 C 241.529 402, 239.842 403.688, 237.946 405.750 M 155.728 443.722 C 157.503 443.943, 160.653 443.946, 162.728 443.730 C 164.802 443.513, 163.350 443.333, 159.500 443.328 C 155.650 443.324, 153.952 443.501, 155.728 443.722 M 160.762 460.707 C 162.006 460.946, 163.806 460.937, 164.762 460.687 C 165.718 460.437, 164.700 460.241, 162.500 460.252 C 160.300 460.263, 159.518 460.468, 160.762 460.707" stroke="none" fill="#754149" fill-rule="evenodd"/></svg>