<svg xmlns="http://www.w3.org/2000/svg" width="512" height="512" viewBox="0 0 512 512" version="1.1"><path d="M 304 224 L 304 232 308.625 232 L 313.250 232 312.625 228.875 C 312.281 227.156, 312 223.556, 312 220.875 L 312 216 308 216 L 304 216 304 224 M 168 256 L 168 264 176 264 L 184 264 184 256 L 184 248 176 248 L 168 248 168 256 M 304 256 L 304 264 312 264 L 320 264 320 256 L 320 248 312 248 L 304 248 304 256 M 199.976 331.651 C 199.963 334.868, 199.537 339.291, 199.030 341.480 C 197.981 346.002, 198.627 347.083, 205.017 351.512 L 208.862 354.177 222.165 352.555 C 229.481 351.663, 235.902 350.498, 236.434 349.966 C 237.055 349.345, 236.721 349, 235.496 349 C 234.449 349, 229.482 347, 224.458 344.556 C 217.801 341.318, 213.245 338.172, 207.662 332.958 L 200 325.802 199.976 331.651" stroke="none" fill="#f5e3a7" fill-rule="evenodd"/><path d="M 298.500 50.401 C 279.073 56.815, 259.963 68.679, 253.427 78.384 L 250.075 83.362 252.271 87.269 C 254.714 91.615, 262.248 99, 264.239 99 C 264.945 99, 272.934 91.579, 281.991 82.509 L 298.460 66.018 304.239 71.736 L 310.017 77.455 297.273 90.227 C 290.264 97.252, 285.197 102.996, 286.014 102.990 C 289.096 102.970, 297.804 98.103, 301.430 94.374 C 308.610 86.992, 318.439 70.743, 322.527 59.500 C 323.526 56.750, 324.757 53.955, 325.262 53.290 C 325.898 52.450, 325.157 51.456, 322.839 50.043 C 318.150 47.184, 307.780 47.337, 298.500 50.401 M 380.779 152.442 C 376.650 155.595, 370.231 163.992, 368.694 168.250 C 368.177 169.684, 366.831 170, 361.241 170 C 340.259 170, 322.364 182.303, 314.917 201.848 C 311.621 210.499, 311.163 223.884, 313.859 232.761 C 317.643 245.220, 326.343 255.660, 338.170 261.934 C 342.508 264.236, 342.625 264.429, 343.668 271.051 C 344.254 274.772, 345.785 279.996, 347.070 282.658 C 349.947 288.617, 356.817 296.117, 362.393 299.385 C 366.818 301.978, 377.038 305, 381.381 305 C 383.356 305, 384.301 305.773, 385.350 308.250 C 386.958 312.049, 393.685 321.323, 397.645 325.200 C 399.161 326.686, 402.458 329.020, 404.971 330.388 L 409.540 332.874 415.020 329.727 C 430.642 320.755, 441.510 300.713, 439.543 284.500 L 438.937 279.500 443.472 277.649 C 454.702 273.067, 464.425 259.168, 465.647 245.951 C 466.695 234.605, 463.255 223.980, 455.787 215.495 C 451.778 210.941, 451.767 210.905, 452.987 206.546 C 453.682 204.063, 454.054 198.566, 453.846 193.835 C 453.550 187.087, 452.894 184.262, 450.404 179 C 446.583 170.928, 439.608 163.917, 431.360 159.856 C 423.661 156.066, 411.416 154.934, 403.802 157.308 C 399.354 158.695, 399.008 158.665, 397.302 156.740 C 394.783 153.898, 387.943 149, 386.494 149 C 385.830 149, 383.259 150.549, 380.779 152.442 M 110.367 241.513 C 110.734 242.471, 111.320 247.922, 111.669 253.627 L 112.304 264 104.171 264 C 94.818 264, 95.509 264.873, 94.589 251.898 C 93.926 242.543, 93.367 241, 90.643 241.001 C 84.493 241.005, 40 254.133, 40 255.943 C 40 256.656, 49.665 261.500, 51.088 261.500 C 52.627 261.500, 72 271.453, 72 272.243 C 72 272.696, 68.850 277.762, 65 283.500 C 61.150 289.238, 58 294.135, 58 294.381 C 58 294.627, 68.350 291.385, 81 287.178 L 104 279.527 127 287.178 C 139.650 291.385, 150 294.627, 150 294.381 C 150 294.135, 146.850 289.238, 143 283.500 C 139.150 277.762, 136 272.702, 136 272.257 C 136 271.811, 142.750 268.096, 151 264 C 159.250 259.904, 166 256.297, 166 255.983 C 166 255.669, 162.063 254.147, 157.250 252.600 C 152.438 251.053, 145.319 248.532, 141.431 246.997 C 134.977 244.448, 125.590 242.198, 114.100 240.445 C 110.186 239.848, 109.773 239.966, 110.367 241.513 M 439.690 351.484 C 423.844 355.501, 410.659 359.008, 410.388 359.279 C 410.117 359.550, 411.724 362.600, 413.959 366.057 C 422.490 379.257, 425.949 398.141, 422.596 413.212 C 420.808 421.249, 416.309 431.588, 412.325 436.816 C 410.935 438.639, 410.040 440.373, 410.335 440.668 C 411.002 441.335, 468.919 455.936, 471.047 455.973 C 472.146 455.992, 473.720 452.538, 476.491 444.028 C 478.635 437.443, 480.189 431.869, 479.944 431.641 C 479.700 431.413, 472.750 427.824, 464.500 423.666 L 449.500 416.105 476.750 416.053 L 504 416 504 400 L 504 384 476.750 383.947 L 449.500 383.895 464.500 376.334 C 472.750 372.176, 479.700 368.587, 479.944 368.359 C 480.189 368.131, 478.635 362.557, 476.491 355.972 C 473.157 345.733, 472.297 344.013, 470.547 344.091 C 469.421 344.141, 455.535 347.468, 439.690 351.484" stroke="none" fill="#a5e887" fill-rule="evenodd"/><path d="M 231.500 162.033 C 201.695 168.299, 175.985 184.648, 158.371 208.536 C 149.091 221.121, 138.273 243.855, 140.598 245.883 C 141.481 246.653, 165.930 255, 167.303 255 C 167.686 255, 168 253.425, 168 251.500 C 168 248.507, 168.336 248, 170.317 248 C 172.264 248, 172.921 247.081, 174.426 242.250 C 183.609 212.774, 207.394 185.892, 236.644 171.931 C 241.240 169.738, 245 167.318, 245 166.553 C 245 163.940, 243.787 162, 242.143 161.985 C 240.717 161.971, 240.698 161.841, 242 161 C 244.196 159.581, 242.257 159.771, 231.500 162.033 M 162.250 259.259 C 159.912 260.433, 158.012 261.643, 158.027 261.947 C 158.041 262.251, 160.581 263.778, 163.670 265.341 L 169.286 268.182 168.643 264.966 C 168.289 263.197, 168 260.681, 168 259.375 C 168 256.529, 167.697 256.523, 162.250 259.259 M 327.250 340.229 L 320 341.190 320 362.595 L 320 384 328 384 L 336 384 336 361.500 C 336 349.125, 335.663 339.060, 335.250 339.134 C 334.837 339.208, 331.238 339.700, 327.250 340.229 M 239.750 350.309 L 232 351.309 232 371.654 L 232 392 240 392 L 248 392 248 370.500 C 248 358.675, 247.887 349.070, 247.750 349.155 C 247.613 349.240, 244.012 349.759, 239.750 350.309 M 184 421.392 C 184 445.826, 182.824 443.171, 194.250 444.541 L 200 445.230 200 422.615 L 200 400 192 400 L 184 400 184 421.392 M 352 408 L 352 416 360 416 L 368 416 368 408 L 368 400 360 400 L 352 400 352 408 M 232 416 L 232 424 240 424 L 248 424 248 416 L 248 408 240 408 L 232 408 232 416 M 288 431.858 L 288 455.716 296 456.647 L 304 457.579 304 432.790 L 304 408 296 408 L 288 408 288 431.858 M 352 448 L 352 464 360 464 L 368 464 368 448 L 368 432 360 432 L 352 432 352 448" stroke="none" fill="#ff9500" fill-rule="evenodd"/><path d="M 260.910 162.756 C 261.695 165.692, 261.173 165.354, 274.250 171.380 C 286.922 177.220, 296.424 183.654, 306.637 193.310 L 314.898 201.121 317.057 196.810 C 318.245 194.440, 321.004 190.351, 323.188 187.725 L 327.161 182.951 324.830 181.026 C 320.692 177.609, 301.730 168.313, 293.500 165.666 C 284.311 162.711, 276.330 161.190, 266.858 160.587 L 260.217 160.165 260.910 162.756 M 360.971 331.497 C 359.030 332.182, 355.122 333.918, 352.287 335.355 C 349.451 336.791, 344.627 338.261, 341.566 338.621 L 336 339.275 336 361.638 L 336 384 328 384 L 320 384 320 362.481 L 320 340.962 317.750 341.449 C 316.512 341.717, 309.425 342.596, 302 343.404 C 294.575 344.211, 279.387 345.891, 268.250 347.137 L 248 349.403 248 370.702 L 248 392 240 392 L 232 392 232 371.666 L 232 351.331 225.750 352.186 C 222.313 352.656, 216.800 353.221, 213.500 353.440 C 210.200 353.660, 206.825 354.061, 206 354.331 C 203.950 355.003, 182.915 357.717, 169.500 359.040 C 153.835 360.585, 148.417 361.662, 142.359 364.436 C 135.469 367.590, 127.550 375.557, 124.344 382.561 L 121.811 388.093 124.595 393.784 C 127.984 400.711, 135.054 407.983, 141.619 411.297 C 147.409 414.220, 153.647 415.544, 168.500 417.005 C 174.550 417.600, 180.512 418.301, 181.750 418.563 C 183.959 419.029, 184 418.865, 184 409.519 L 184 400 192 400 L 200 400 200 410.500 C 200 419.020, 200.274 421, 201.454 421 C 202.254 421, 221.400 423.250, 244 426 C 266.600 428.750, 285.746 431, 286.546 431 C 287.734 431, 288 428.895, 288 419.500 L 288 408 296 408 L 304 408 304 420.481 C 304 432.614, 304.063 432.975, 306.250 433.445 C 307.488 433.711, 316.600 434.870, 326.500 436.021 C 336.400 437.172, 346.188 438.371, 348.250 438.685 C 351.999 439.255, 352 439.255, 352 435.628 L 352 432 360 432 L 368 432 368 435.500 C 368 438.501, 368.333 439, 370.335 439 C 373.934 439, 384.889 435.181, 391 431.797 C 405.793 423.604, 417.319 408.848, 421.598 392.627 C 422.778 388.154, 422.677 387.082, 420.396 379.861 C 417.305 370.075, 408.669 357.011, 401 350.518 C 392.118 342.997, 375.299 336, 366.106 336 C 362.668 336, 362.519 335.768, 364.081 332.849 C 365.510 330.179, 365.149 330.022, 360.971 331.497 M 352 408 L 352 416 360 416 L 368 416 368 408 L 368 400 360 400 L 352 400 352 408 M 232 416 L 232 424 240 424 L 248 424 248 416 L 248 408 240 408 L 232 408 232 416" stroke="none" fill="#ffc247" fill-rule="evenodd"/><path d="M 322.627 61.331 C 316.640 76.267, 304.899 93.816, 297.711 98.572 C 293.919 101.082, 286.891 104, 284.639 104 C 284.028 104, 289.367 98.149, 296.502 90.998 L 309.475 77.996 303.737 72.259 L 298 66.522 281.133 83.367 C 266.377 98.104, 264.022 100.082, 262.320 99.171 C 259.399 97.608, 252.332 89.622, 251.472 86.912 L 250.717 84.533 249.694 87.016 C 248.435 90.070, 248.044 103.909, 249.196 104.621 C 249.656 104.906, 249.793 105.526, 249.500 106 C 249.207 106.474, 249.432 107.149, 250 107.500 C 250.568 107.851, 250.774 108.557, 250.457 109.069 C 250.141 109.581, 250.284 110, 250.774 110 C 253.080 110, 251.155 113.399, 245.910 118.589 L 240.153 124.286 236.188 120.893 C 224.783 111.131, 209.351 105.079, 193.750 104.251 L 184 103.733 184 111.750 C 184 120.745, 184.197 120.958, 192.540 120.986 C 198.469 121.006, 207.540 123.561, 215.537 127.464 C 234.186 136.566, 248 161.300, 248 185.588 L 248 192 256.151 192 L 264.302 192 263.688 182.656 C 262.822 169.475, 259.607 156.148, 254.792 145.787 L 250.661 136.895 256.887 130.614 C 262.538 124.913, 266 122.865, 266 125.226 C 266 125.716, 266.419 125.859, 266.931 125.543 C 267.443 125.226, 268.149 125.432, 268.500 126 C 268.851 126.568, 269.526 126.793, 270 126.500 C 270.474 126.207, 271.120 126.385, 271.436 126.896 C 271.752 127.407, 275.368 127.709, 279.472 127.566 C 295.494 127.010, 305.937 117.947, 317.893 94.223 C 323.120 83.850, 327.147 70.536, 327.187 63.488 C 327.244 53.585, 325.973 52.983, 322.627 61.331 M 393.250 146.608 C 389.500 147.983, 387.484 150, 389.859 150 C 390.332 150, 392.715 151.758, 395.156 153.906 L 399.594 157.812 405.047 156.338 C 415.828 153.424, 429.050 156.196, 438.918 163.440 C 444.802 167.759, 451.377 177.163, 453.491 184.282 C 455.273 190.283, 455.449 200.330, 453.882 206.555 C 452.784 210.914, 452.833 211.072, 456.497 215.128 C 470.631 230.773, 469.774 255.357, 454.563 270.567 C 451.521 273.609, 447 276.997, 444.516 278.096 L 440 280.094 440 287.941 C 440 297.716, 437.393 306.560, 432.151 314.572 C 427.447 321.760, 424.270 324.803, 416.767 329.308 L 411.034 332.750 415.767 334.125 C 423.564 336.390, 437.365 335.916, 445 333.120 C 465.115 325.753, 476.993 308.651, 477.004 287.040 L 477.007 279.500 481.488 277.658 C 483.952 276.644, 488.337 273.477, 491.234 270.620 C 506.874 255.190, 507.563 231.239, 492.848 214.479 C 489.923 211.148, 489.861 210.875, 490.913 205.970 C 494.229 190.510, 489.854 176.551, 478.419 166.100 C 469.315 157.779, 456.074 154.348, 442.998 156.921 L 436.948 158.111 432.754 154.522 C 430.448 152.547, 426.078 149.717, 423.043 148.233 C 418.330 145.927, 416.064 145.498, 407.513 145.291 C 400.412 145.119, 396.264 145.502, 393.250 146.608 M 87.626 207.850 L 81.752 213.808 84.305 217.155 C 89.853 224.430, 94.237 239.413, 95.601 255.763 L 96.288 264 104.144 264 L 112 264 111.990 261.250 C 111.968 254.881, 108.934 232.077, 107.433 227 C 105.460 220.326, 99.919 209.515, 96.217 205.118 L 93.500 201.891 87.626 207.850 M 325.559 256.252 C 321.706 274.388, 317.674 286.822, 312.184 297.500 C 309.374 302.965, 305.456 307.690, 294.310 319.051 L 280.034 333.602 285.298 338.801 C 288.765 342.224, 291.406 344.003, 293.031 344.010 C 294.389 344.015, 307.200 342.598, 321.500 340.862 C 345.482 337.949, 348.004 337.455, 354 334.489 C 361.176 330.941, 377.835 325.775, 388.151 323.900 L 394.802 322.691 391.151 318.069 C 389.143 315.527, 386.644 311.547, 385.598 309.224 C 383.876 305.398, 383.357 304.999, 380.098 304.989 C 362.847 304.937, 344.888 287.884, 343.268 270.017 C 342.823 265.111, 342.389 264.063, 340.618 263.616 C 339.453 263.322, 335.696 261.039, 332.269 258.543 C 326.271 254.175, 326.019 254.089, 325.559 256.252" stroke="none" fill="#98ba5c" fill-rule="evenodd"/><path d="M 298.500 50.401 C 279.073 56.815, 259.963 68.679, 253.427 78.384 L 250.075 83.362 252.271 87.269 C 254.714 91.615, 262.248 99, 264.239 99 C 264.945 99, 272.934 91.579, 281.991 82.509 L 298.460 66.018 304.239 71.736 L 310.017 77.455 297.273 90.227 C 290.264 97.252, 285.197 102.996, 286.014 102.990 C 289.096 102.970, 297.804 98.103, 301.430 94.374 C 308.610 86.992, 318.439 70.743, 322.527 59.500 C 323.526 56.750, 324.757 53.955, 325.262 53.290 C 325.898 52.450, 325.157 51.456, 322.839 50.043 C 318.150 47.184, 307.780 47.337, 298.500 50.401 M 380.779 152.442 C 376.650 155.595, 370.231 163.992, 368.694 168.250 C 368.177 169.684, 366.831 170, 361.241 170 C 340.259 170, 322.364 182.303, 314.917 201.848 C 311.621 210.499, 311.163 223.884, 313.859 232.761 C 317.643 245.220, 326.343 255.660, 338.170 261.934 C 342.508 264.236, 342.625 264.429, 343.668 271.051 C 344.254 274.772, 345.785 279.996, 347.070 282.658 C 349.947 288.617, 356.817 296.117, 362.393 299.385 C 366.818 301.978, 377.038 305, 381.381 305 C 383.356 305, 384.301 305.773, 385.350 308.250 C 386.958 312.049, 393.685 321.323, 397.645 325.200 C 399.161 326.686, 402.458 329.020, 404.971 330.388 L 409.540 332.874 415.020 329.727 C 430.642 320.755, 441.510 300.713, 439.543 284.500 L 438.937 279.500 443.472 277.649 C 454.702 273.067, 464.425 259.168, 465.647 245.951 C 466.695 234.605, 463.255 223.980, 455.787 215.495 C 451.778 210.941, 451.767 210.905, 452.987 206.546 C 453.682 204.063, 454.054 198.566, 453.846 193.835 C 453.550 187.087, 452.894 184.262, 450.404 179 C 446.583 170.928, 439.608 163.917, 431.360 159.856 C 423.661 156.066, 411.416 154.934, 403.802 157.308 C 399.354 158.695, 399.008 158.665, 397.302 156.740 C 394.783 153.898, 387.943 149, 386.494 149 C 385.830 149, 383.259 150.549, 380.779 152.442 M 110.367 241.513 C 110.734 242.471, 111.320 247.922, 111.669 253.627 L 112.304 264 104.171 264 C 94.818 264, 95.509 264.873, 94.589 251.898 C 93.926 242.543, 93.367 241, 90.643 241.001 C 84.493 241.005, 40 254.133, 40 255.943 C 40 256.656, 49.665 261.500, 51.088 261.500 C 52.627 261.500, 72 271.453, 72 272.243 C 72 272.696, 68.850 277.762, 65 283.500 C 61.150 289.238, 58 294.135, 58 294.381 C 58 294.627, 68.350 291.385, 81 287.178 L 104 279.527 127 287.178 C 139.650 291.385, 150 294.627, 150 294.381 C 150 294.135, 146.850 289.238, 143 283.500 C 139.150 277.762, 136 272.702, 136 272.257 C 136 271.811, 142.750 268.096, 151 264 C 159.250 259.904, 166 256.297, 166 255.983 C 166 255.669, 162.063 254.147, 157.250 252.600 C 152.438 251.053, 145.319 248.532, 141.431 246.997 C 134.977 244.448, 125.590 242.198, 114.100 240.445 C 110.186 239.848, 109.773 239.966, 110.367 241.513 M 439.690 351.484 C 423.844 355.501, 410.659 359.008, 410.388 359.279 C 410.117 359.550, 411.724 362.600, 413.959 366.057 C 422.490 379.257, 425.949 398.141, 422.596 413.212 C 420.808 421.249, 416.309 431.588, 412.325 436.816 C 410.935 438.639, 410.040 440.373, 410.335 440.668 C 411.002 441.335, 468.919 455.936, 471.047 455.973 C 472.146 455.992, 473.720 452.538, 476.491 444.028 C 478.635 437.443, 480.189 431.869, 479.944 431.641 C 479.700 431.413, 472.750 427.824, 464.500 423.666 L 449.500 416.105 476.750 416.053 L 504 416 504 400 L 504 384 476.750 383.947 L 449.500 383.895 464.500 376.334 C 472.750 372.176, 479.700 368.587, 479.944 368.359 C 480.189 368.131, 478.635 362.557, 476.491 355.972 C 473.157 345.733, 472.297 344.013, 470.547 344.091 C 469.421 344.141, 455.535 347.468, 439.690 351.484" stroke="none" fill="#a5e887" fill-rule="evenodd"/><path d="M 322.627 61.331 C 316.640 76.267, 304.899 93.816, 297.711 98.572 C 293.919 101.082, 286.891 104, 284.639 104 C 284.028 104, 289.367 98.149, 296.502 90.998 L 309.475 77.996 303.737 72.259 L 298 66.522 281.133 83.367 C 266.377 98.104, 264.022 100.082, 262.320 99.171 C 259.399 97.608, 252.332 89.622, 251.472 86.912 L 250.717 84.533 249.694 87.016 C 248.435 90.070, 248.044 103.909, 249.196 104.621 C 249.656 104.906, 249.793 105.526, 249.500 106 C 249.207 106.474, 249.432 107.149, 250 107.500 C 250.568 107.851, 250.774 108.557, 250.457 109.069 C 250.141 109.581, 250.284 110, 250.774 110 C 253.080 110, 251.155 113.399, 245.910 118.589 L 240.153 124.286 236.188 120.893 C 224.783 111.131, 209.351 105.079, 193.750 104.251 L 184 103.733 184 111.750 C 184 120.745, 184.197 120.958, 192.540 120.986 C 198.469 121.006, 207.540 123.561, 215.537 127.464 C 234.186 136.566, 248 161.300, 248 185.588 L 248 192 256.151 192 L 264.302 192 263.688 182.656 C 262.822 169.475, 259.607 156.148, 254.792 145.787 L 250.661 136.895 256.887 130.614 C 262.538 124.913, 266 122.865, 266 125.226 C 266 125.716, 266.419 125.859, 266.931 125.543 C 267.443 125.226, 268.149 125.432, 268.500 126 C 268.851 126.568, 269.526 126.793, 270 126.500 C 270.474 126.207, 271.120 126.385, 271.436 126.896 C 271.752 127.407, 275.368 127.709, 279.472 127.566 C 295.494 127.010, 305.937 117.947, 317.893 94.223 C 323.120 83.850, 327.147 70.536, 327.187 63.488 C 327.244 53.585, 325.973 52.983, 322.627 61.331 M 393.250 146.608 C 389.500 147.983, 387.484 150, 389.859 150 C 390.332 150, 392.715 151.758, 395.156 153.906 L 399.594 157.812 405.047 156.338 C 415.828 153.424, 429.050 156.196, 438.918 163.440 C 444.802 167.759, 451.377 177.163, 453.491 184.282 C 455.273 190.283, 455.449 200.330, 453.882 206.555 C 452.784 210.914, 452.833 211.072, 456.497 215.128 C 470.631 230.773, 469.774 255.357, 454.563 270.567 C 451.521 273.609, 447 276.997, 444.516 278.096 L 440 280.094 440 287.941 C 440 297.716, 437.393 306.560, 432.151 314.572 C 427.447 321.760, 424.270 324.803, 416.767 329.308 L 411.034 332.750 415.767 334.125 C 423.564 336.390, 437.365 335.916, 445 333.120 C 465.115 325.753, 476.993 308.651, 477.004 287.040 L 477.007 279.500 481.488 277.658 C 483.952 276.644, 488.337 273.477, 491.234 270.620 C 506.874 255.190, 507.563 231.239, 492.848 214.479 C 489.923 211.148, 489.861 210.875, 490.913 205.970 C 494.229 190.510, 489.854 176.551, 478.419 166.100 C 469.315 157.779, 456.074 154.348, 442.998 156.921 L 436.948 158.111 432.754 154.522 C 430.448 152.547, 426.078 149.717, 423.043 148.233 C 418.330 145.927, 416.064 145.498, 407.513 145.291 C 400.412 145.119, 396.264 145.502, 393.250 146.608 M 87.626 207.850 L 81.752 213.808 84.305 217.155 C 89.853 224.430, 94.237 239.413, 95.601 255.763 L 96.288 264 104.144 264 L 112 264 111.990 261.250 C 111.968 254.881, 108.934 232.077, 107.433 227 C 105.460 220.326, 99.919 209.515, 96.217 205.118 L 93.500 201.891 87.626 207.850 M 325.559 256.252 C 321.706 274.388, 317.674 286.822, 312.184 297.500 C 309.374 302.965, 305.456 307.690, 294.310 319.051 L 280.034 333.602 285.298 338.801 C 288.765 342.224, 291.406 344.003, 293.031 344.010 C 294.389 344.015, 307.200 342.598, 321.500 340.862 C 345.482 337.949, 348.004 337.455, 354 334.489 C 361.176 330.941, 377.835 325.775, 388.151 323.900 L 394.802 322.691 391.151 318.069 C 389.143 315.527, 386.644 311.547, 385.598 309.224 C 383.876 305.398, 383.357 304.999, 380.098 304.989 C 362.847 304.937, 344.888 287.884, 343.268 270.017 C 342.823 265.111, 342.389 264.063, 340.618 263.616 C 339.453 263.322, 335.696 261.039, 332.269 258.543 C 326.271 254.175, 326.019 254.089, 325.559 256.252" stroke="none" fill="#98ba5c" fill-rule="evenodd"/><path d="M 322.627 61.331 C 316.640 76.267, 304.899 93.816, 297.711 98.572 C 293.919 101.082, 286.891 104, 284.639 104 C 284.028 104, 289.367 98.149, 296.502 90.998 L 309.475 77.996 303.737 72.259 L 298 66.522 281.133 83.367 C 266.377 98.104, 264.022 100.082, 262.320 99.171 C 259.399 97.608, 252.332 89.622, 251.472 86.912 L 250.717 84.533 249.694 87.016 C 248.435 90.070, 248.044 103.909, 249.196 104.621 C 249.656 104.906, 249.793 105.526, 249.500 106 C 249.207 106.474, 249.432 107.149, 250 107.500 C 250.568 107.851, 250.774 108.557, 250.457 109.069 C 250.141 109.581, 250.284 110, 250.774 110 C 253.080 110, 251.155 113.399, 245.910 118.589 L 240.153 124.286 236.188 120.893 C 224.783 111.131, 209.351 105.079, 193.750 104.251 L 184 103.733 184 111.750 C 184 120.745, 184.197 120.958, 192.540 120.986 C 198.469 121.006, 207.540 123.561, 215.537 127.464 C 234.186 136.566, 248 161.300, 248 185.588 L 248 192 256.151 192 L 264.302 192 263.688 182.656 C 262.822 169.475, 259.607 156.148, 254.792 145.787 L 250.661 136.895 256.887 130.614 C 262.538 124.913, 266 122.865, 266 125.226 C 266 125.716, 266.419 125.859, 266.931 125.543 C 267.443 125.226, 268.149 125.432, 268.500 126 C 268.851 126.568, 269.526 126.793, 270 126.500 C 270.474 126.207, 271.120 126.385, 271.436 126.896 C 271.752 127.407, 275.368 127.709, 279.472 127.566 C 295.494 127.010, 305.937 117.947, 317.893 94.223 C 323.120 83.850, 327.147 70.536, 327.187 63.488 C 327.244 53.585, 325.973 52.983, 322.627 61.331 M 393.250 146.608 C 389.500 147.983, 387.484 150, 389.859 150 C 390.332 150, 392.715 151.758, 395.156 153.906 L 399.594 157.812 405.047 156.338 C 415.828 153.424, 429.050 156.196, 438.918 163.440 C 444.802 167.759, 451.377 177.163, 453.491 184.282 C 455.273 190.283, 455.449 200.330, 453.882 206.555 C 452.784 210.914, 452.833 211.072, 456.497 215.128 C 470.631 230.773, 469.774 255.357, 454.563 270.567 C 451.521 273.609, 447 276.997, 444.516 278.096 L 440 280.094 440 287.941 C 440 297.716, 437.393 306.560, 432.151 314.572 C 427.447 321.760, 424.270 324.803, 416.767 329.308 L 411.034 332.750 415.767 334.125 C 423.564 336.390, 437.365 335.916, 445 333.120 C 465.115 325.753, 476.993 308.651, 477.004 287.040 L 477.007 279.500 481.488 277.658 C 483.952 276.644, 488.337 273.477, 491.234 270.620 C 506.874 255.190, 507.563 231.239, 492.848 214.479 C 489.923 211.148, 489.861 210.875, 490.913 205.970 C 494.229 190.510, 489.854 176.551, 478.419 166.100 C 469.315 157.779, 456.074 154.348, 442.998 156.921 L 436.948 158.111 432.754 154.522 C 430.448 152.547, 426.078 149.717, 423.043 148.233 C 418.330 145.927, 416.064 145.498, 407.513 145.291 C 400.412 145.119, 396.264 145.502, 393.250 146.608 M 87.626 207.850 L 81.752 213.808 84.305 217.155 C 89.853 224.430, 94.237 239.413, 95.601 255.763 L 96.288 264 104.144 264 L 112 264 111.990 261.250 C 111.968 254.881, 108.934 232.077, 107.433 227 C 105.460 220.326, 99.919 209.515, 96.217 205.118 L 93.500 201.891 87.626 207.850 M 325.559 256.252 C 321.706 274.388, 317.674 286.822, 312.184 297.500 C 309.374 302.965, 305.456 307.690, 294.310 319.051 L 280.034 333.602 285.298 338.801 C 288.765 342.224, 291.406 344.003, 293.031 344.010 C 294.389 344.015, 307.200 342.598, 321.500 340.862 C 345.482 337.949, 348.004 337.455, 354 334.489 C 361.176 330.941, 377.835 325.775, 388.151 323.900 L 394.802 322.691 391.151 318.069 C 389.143 315.527, 386.644 311.547, 385.598 309.224 C 383.876 305.398, 383.357 304.999, 380.098 304.989 C 362.847 304.937, 344.888 287.884, 343.268 270.017 C 342.823 265.111, 342.389 264.063, 340.618 263.616 C 339.453 263.322, 335.696 261.039, 332.269 258.543 C 326.271 254.175, 326.019 254.089, 325.559 256.252" stroke="none" fill="#98ba5c" fill-rule="evenodd"/><path d="M 298.500 50.401 C 279.073 56.815, 259.963 68.679, 253.427 78.384 L 250.075 83.362 252.271 87.269 C 254.714 91.615, 262.248 99, 264.239 99 C 264.945 99, 272.934 91.579, 281.991 82.509 L 298.460 66.018 304.239 71.736 L 310.017 77.455 297.273 90.227 C 290.264 97.252, 285.197 102.996, 286.014 102.990 C 289.096 102.970, 297.804 98.103, 301.430 94.374 C 308.610 86.992, 318.439 70.743, 322.527 59.500 C 323.526 56.750, 324.757 53.955, 325.262 53.290 C 325.898 52.450, 325.157 51.456, 322.839 50.043 C 318.150 47.184, 307.780 47.337, 298.500 50.401 M 380.779 152.442 C 376.650 155.595, 370.231 163.992, 368.694 168.250 C 368.177 169.684, 366.831 170, 361.241 170 C 340.259 170, 322.364 182.303, 314.917 201.848 C 311.621 210.499, 311.163 223.884, 313.859 232.761 C 317.643 245.220, 326.343 255.660, 338.170 261.934 C 342.508 264.236, 342.625 264.429, 343.668 271.051 C 344.254 274.772, 345.785 279.996, 347.070 282.658 C 349.947 288.617, 356.817 296.117, 362.393 299.385 C 366.818 301.978, 377.038 305, 381.381 305 C 383.356 305, 384.301 305.773, 385.350 308.250 C 386.958 312.049, 393.685 321.323, 397.645 325.200 C 399.161 326.686, 402.458 329.020, 404.971 330.388 L 409.540 332.874 415.020 329.727 C 430.642 320.755, 441.510 300.713, 439.543 284.500 L 438.937 279.500 443.472 277.649 C 454.702 273.067, 464.425 259.168, 465.647 245.951 C 466.695 234.605, 463.255 223.980, 455.787 215.495 C 451.778 210.941, 451.767 210.905, 452.987 206.546 C 453.682 204.063, 454.054 198.566, 453.846 193.835 C 453.550 187.087, 452.894 184.262, 450.404 179 C 446.583 170.928, 439.608 163.917, 431.360 159.856 C 423.661 156.066, 411.416 154.934, 403.802 157.308 C 399.354 158.695, 399.008 158.665, 397.302 156.740 C 394.783 153.898, 387.943 149, 386.494 149 C 385.830 149, 383.259 150.549, 380.779 152.442 M 110.367 241.513 C 110.734 242.471, 111.320 247.922, 111.669 253.627 L 112.304 264 104.171 264 C 94.818 264, 95.509 264.873, 94.589 251.898 C 93.926 242.543, 93.367 241, 90.643 241.001 C 84.493 241.005, 40 254.133, 40 255.943 C 40 256.656, 49.665 261.500, 51.088 261.500 C 52.627 261.500, 72 271.453, 72 272.243 C 72 272.696, 68.850 277.762, 65 283.500 C 61.150 289.238, 58 294.135, 58 294.381 C 58 294.627, 68.350 291.385, 81 287.178 L 104 279.527 127 287.178 C 139.650 291.385, 150 294.627, 150 294.381 C 150 294.135, 146.850 289.238, 143 283.500 C 139.150 277.762, 136 272.702, 136 272.257 C 136 271.811, 142.750 268.096, 151 264 C 159.250 259.904, 166 256.297, 166 255.983 C 166 255.669, 162.063 254.147, 157.250 252.600 C 152.438 251.053, 145.319 248.532, 141.431 246.997 C 134.977 244.448, 125.590 242.198, 114.100 240.445 C 110.186 239.848, 109.773 239.966, 110.367 241.513 M 439.690 351.484 C 423.844 355.501, 410.659 359.008, 410.388 359.279 C 410.117 359.550, 411.724 362.600, 413.959 366.057 C 422.490 379.257, 425.949 398.141, 422.596 413.212 C 420.808 421.249, 416.309 431.588, 412.325 436.816 C 410.935 438.639, 410.040 440.373, 410.335 440.668 C 411.002 441.335, 468.919 455.936, 471.047 455.973 C 472.146 455.992, 473.720 452.538, 476.491 444.028 C 478.635 437.443, 480.189 431.869, 479.944 431.641 C 479.700 431.413, 472.750 427.824, 464.500 423.666 L 449.500 416.105 476.750 416.053 L 504 416 504 400 L 504 384 476.750 383.947 L 449.500 383.895 464.500 376.334 C 472.750 372.176, 479.700 368.587, 479.944 368.359 C 480.189 368.131, 478.635 362.557, 476.491 355.972 C 473.157 345.733, 472.297 344.013, 470.547 344.091 C 469.421 344.141, 455.535 347.468, 439.690 351.484" stroke="none" fill="#a5e887" fill-rule="evenodd"/><path d="M 260.910 162.756 C 261.695 165.692, 261.173 165.354, 274.250 171.380 C 286.922 177.220, 296.424 183.654, 306.637 193.310 L 314.898 201.121 317.057 196.810 C 318.245 194.440, 321.004 190.351, 323.188 187.725 L 327.161 182.951 324.830 181.026 C 320.692 177.609, 301.730 168.313, 293.500 165.666 C 284.311 162.711, 276.330 161.190, 266.858 160.587 L 260.217 160.165 260.910 162.756 M 360.971 331.497 C 359.030 332.182, 355.122 333.918, 352.287 335.355 C 349.451 336.791, 344.627 338.261, 341.566 338.621 L 336 339.275 336 361.638 L 336 384 328 384 L 320 384 320 362.481 L 320 340.962 317.750 341.449 C 316.512 341.717, 309.425 342.596, 302 343.404 C 294.575 344.211, 279.387 345.891, 268.250 347.137 L 248 349.403 248 370.702 L 248 392 240 392 L 232 392 232 371.666 L 232 351.331 225.750 352.186 C 222.313 352.656, 216.800 353.221, 213.500 353.440 C 210.200 353.660, 206.825 354.061, 206 354.331 C 203.950 355.003, 182.915 357.717, 169.500 359.040 C 153.835 360.585, 148.417 361.662, 142.359 364.436 C 135.469 367.590, 127.550 375.557, 124.344 382.561 L 121.811 388.093 124.595 393.784 C 127.984 400.711, 135.054 407.983, 141.619 411.297 C 147.409 414.220, 153.647 415.544, 168.500 417.005 C 174.550 417.600, 180.512 418.301, 181.750 418.563 C 183.959 419.029, 184 418.865, 184 409.519 L 184 400 192 400 L 200 400 200 410.500 C 200 419.020, 200.274 421, 201.454 421 C 202.254 421, 221.400 423.250, 244 426 C 266.600 428.750, 285.746 431, 286.546 431 C 287.734 431, 288 428.895, 288 419.500 L 288 408 296 408 L 304 408 304 420.481 C 304 432.614, 304.063 432.975, 306.250 433.445 C 307.488 433.711, 316.600 434.870, 326.500 436.021 C 336.400 437.172, 346.188 438.371, 348.250 438.685 C 351.999 439.255, 352 439.255, 352 435.628 L 352 432 360 432 L 368 432 368 435.500 C 368 438.501, 368.333 439, 370.335 439 C 373.934 439, 384.889 435.181, 391 431.797 C 405.793 423.604, 417.319 408.848, 421.598 392.627 C 422.778 388.154, 422.677 387.082, 420.396 379.861 C 417.305 370.075, 408.669 357.011, 401 350.518 C 392.118 342.997, 375.299 336, 366.106 336 C 362.668 336, 362.519 335.768, 364.081 332.849 C 365.510 330.179, 365.149 330.022, 360.971 331.497 M 352 408 L 352 416 360 416 L 368 416 368 408 L 368 400 360 400 L 352 400 352 408 M 232 416 L 232 424 240 424 L 248 424 248 416 L 248 408 240 408 L 232 408 232 416" stroke="none" fill="#ffc247" fill-rule="evenodd"/><path d="M 262.436 168.600 C 262.857 169.645, 263.445 175.338, 263.742 181.250 L 264.283 192 256.343 192 L 248.403 192 247.241 180.373 C 246.602 173.978, 245.868 168.534, 245.609 168.276 C 244.754 167.421, 226.322 176.994, 219.350 181.914 C 199.638 195.826, 184.713 214.925, 176.304 237 C 174.523 241.675, 173.051 246.063, 173.033 246.750 C 173.011 247.603, 174.749 248, 178.500 248 L 184 248 184 256 L 184 264 176.500 264 C 169.384 264, 169.001 264.115, 169.017 266.250 C 169.027 267.579, 170.205 269.319, 171.891 270.500 C 175.220 272.830, 184 280.820, 184 281.518 C 184 281.781, 185.569 284.180, 187.488 286.850 C 189.406 289.520, 192.106 294.174, 193.488 297.192 C 196.411 303.578, 200 316.936, 200 321.432 C 200 325.379, 204.007 330.324, 212.258 336.560 C 219.137 341.759, 230.595 347.646, 235.700 348.604 C 237.514 348.944, 238.707 349.666, 238.366 350.217 C 238.001 350.807, 238.515 350.986, 239.625 350.654 C 240.656 350.346, 251.625 348.915, 264 347.474 C 276.375 346.034, 287.142 344.646, 287.927 344.391 C 288.929 344.065, 287.962 342.515, 284.677 339.179 C 282.104 336.568, 280 334.024, 280 333.527 C 280 333.029, 286.003 326.745, 293.339 319.561 C 307.173 306.015, 311.072 300.551, 316.585 286.982 C 319.254 280.415, 324.993 258.919, 324.997 255.473 C 324.999 254.358, 323.254 251.123, 321.120 248.283 C 318.987 245.443, 316.204 240.618, 314.936 237.560 C 312.644 232.028, 312.610 232, 308.316 232 L 304 232 304 224 L 304 216 307.400 216 L 310.799 216 312.524 208.250 L 314.249 200.500 306.374 193.155 C 294.184 181.786, 275.183 170.092, 264.569 167.428 C 261.996 166.782, 261.757 166.913, 262.436 168.600 M 304 256 L 304 264 312 264 L 320 264 320 256 L 320 248 312 248 L 304 248 304 256 M 197.133 349.187 C 194.614 355.917, 194.469 355.664, 200.461 355.004 C 203.469 354.673, 206.171 354.162, 206.464 353.869 C 206.757 353.576, 204.972 351.883, 202.497 350.106 L 197.998 346.874 197.133 349.187 M 120.429 393.624 C 119.511 399.746, 120.595 410.775, 122.591 415.614 C 125.009 421.477, 131.437 429.516, 136.481 432.987 C 143.070 437.520, 147.783 438.859, 162.912 440.495 C 170.385 441.304, 178.188 442.257, 180.250 442.613 L 184 443.262 184 431.219 L 184 419.176 180.250 418.574 C 178.188 418.243, 170.478 417.318, 163.118 416.519 C 152.370 415.351, 148.496 414.485, 143.438 412.118 C 135.304 408.312, 129.085 402.512, 125.082 395.002 C 123.322 391.701, 121.712 389, 121.503 389 C 121.294 389, 120.811 391.081, 120.429 393.624 M 421.675 393.210 C 421.262 395.250, 419.058 400.648, 416.777 405.205 C 408.889 420.965, 393.171 433.510, 375.784 437.921 L 368.500 439.770 368.219 451.885 C 368.065 458.548, 368.241 464, 368.611 464 C 368.982 464, 372.360 463.084, 376.120 461.964 C 396.903 455.775, 408.809 445.455, 418.118 425.562 C 422.194 416.850, 424.682 402.279, 423.366 394.825 L 422.425 389.500 421.675 393.210 M 200 432.869 C 200 439.541, 200.182 445, 200.405 445 C 201.260 445, 227.677 448.137, 234.905 449.097 C 239.082 449.652, 244.525 450.314, 247 450.569 C 249.475 450.824, 255.325 451.529, 260 452.134 C 264.675 452.740, 269.400 453.350, 270.500 453.490 C 271.600 453.629, 275.988 454.065, 280.250 454.457 L 288 455.171 288 443.293 L 288 431.416 247.250 426.583 C 224.838 423.925, 205.037 421.523, 203.250 421.245 L 200 420.738 200 432.869 M 304 445.696 C 304 457.776, 304.041 458.001, 306.250 458.045 C 312.872 458.177, 349.769 462.739, 351.159 463.598 C 351.621 463.884, 352 458.677, 352 452.028 C 352 442.822, 351.679 439.814, 350.655 439.421 C 349.915 439.137, 339.115 437.664, 326.655 436.148 L 304 433.392 304 445.696" stroke="none" fill="#ffa426" fill-rule="evenodd"/><path d="M 43.172 265.750 C 27.258 275.391, 16.878 288.491, 10.816 306.586 C 8.809 312.578, 8.505 315.434, 8.538 328 C 8.572 341.188, 8.824 343.214, 11.328 350.390 C 18.010 369.546, 31.301 384.792, 48.457 392.980 C 61.143 399.034, 67.550 400, 95.020 400 L 119.720 400 120.262 394.750 C 121.521 382.557, 130.941 369.517, 142.462 364.018 C 147.257 361.730, 151.362 360.777, 161.536 359.590 C 168.666 358.759, 178.943 357.532, 184.374 356.863 L 194.249 355.649 195.702 352.171 C 197.952 346.785, 200.002 334.572, 199.983 326.662 C 199.957 316.169, 197.624 306.667, 192.575 296.500 C 185.557 282.368, 174.746 270.987, 162.129 264.448 L 156.759 261.664 146.361 266.835 L 135.964 272.006 144.105 284.157 C 149.247 291.832, 151.556 296.039, 150.373 295.577 C 149.343 295.174, 138.478 291.450, 126.228 287.300 L 103.957 279.755 81.489 287.405 C 69.132 291.612, 58.259 295.347, 57.326 295.705 C 56.394 296.063, 59.015 291.438, 63.151 285.428 C 67.287 279.418, 70.989 273.951, 71.376 273.280 C 71.853 272.455, 68.830 270.427, 62.059 267.030 C 56.546 264.263, 51.435 262, 50.699 262 C 49.964 262, 46.577 263.688, 43.172 265.750" stroke="none" fill="#ff475a" fill-rule="evenodd"/><path d="M 324.075 55.315 C 322.572 59.251, 322.882 60.132, 324.492 56.500 L 325.821 53.500 326.372 56 C 326.674 57.375, 327.112 59.400, 327.345 60.500 C 327.614 61.770, 327.810 61.384, 327.884 59.441 C 327.948 57.759, 327.359 55.509, 326.575 54.441 C 325.200 52.569, 325.111 52.600, 324.075 55.315 M 327.160 66.852 C 326.911 72.074, 321.343 87.605, 316.273 97.223 C 309.660 109.767, 302.426 118.867, 295.982 122.750 C 293.016 124.537, 291.080 126, 291.681 126 C 294.435 126, 302.970 118.868, 307.597 112.701 C 317.676 99.266, 328.654 74.156, 327.718 66.679 L 327.320 63.500 327.160 66.852 M 303.500 72 C 306.766 75.300, 309.662 78, 309.937 78 C 310.212 78, 307.766 75.300, 304.500 72 C 301.234 68.700, 298.338 66, 298.063 66 C 297.788 66, 300.234 68.700, 303.500 72 M 317.695 70.513 C 316.781 72.431, 316.239 74, 316.490 74 C 317.175 74, 320.210 67.877, 319.753 67.420 C 319.536 67.203, 318.610 68.594, 317.695 70.513 M 310.310 82.810 C 307.469 87.105, 303.200 92.574, 300.822 94.961 C 298.445 97.349, 297.550 98.672, 298.834 97.901 C 302.235 95.859, 317.655 75, 315.764 75 C 315.605 75, 313.151 78.514, 310.310 82.810 M 252.812 89.563 C 254.228 92.324, 262.628 100.001, 264.228 99.996 C 264.927 99.994, 264.122 99.152, 262.439 98.126 C 260.755 97.099, 257.662 94.288, 255.566 91.879 C 253.470 89.471, 252.231 88.428, 252.812 89.563 M 401.750 144.732 C 404.087 144.943, 407.913 144.943, 410.250 144.732 C 412.587 144.522, 410.675 144.349, 406 144.349 C 401.325 144.349, 399.413 144.522, 401.750 144.732 M 390.534 146.834 C 387.959 147.990, 386.994 148.879, 387.784 149.366 C 388.453 149.780, 389 149.679, 389 149.142 C 389 148.606, 390.913 147.490, 393.250 146.662 C 395.587 145.835, 396.825 145.134, 396 145.105 C 395.175 145.076, 392.715 145.854, 390.534 146.834 M 426.554 150.101 C 429.274 151.807, 432.848 154.394, 434.496 155.851 L 437.493 158.500 435.054 155.731 C 432.583 152.925, 424.041 147, 422.467 147 C 421.995 147, 423.834 148.395, 426.554 150.101 M 396 155.500 C 397.866 157.425, 399.617 159, 399.892 159 C 400.167 159, 398.866 157.425, 397 155.500 C 395.134 153.575, 393.383 152, 393.108 152 C 392.833 152, 394.134 153.575, 396 155.500 M 411.768 155.725 C 413.565 155.947, 416.265 155.943, 417.768 155.715 C 419.271 155.486, 417.800 155.304, 414.500 155.310 C 411.200 155.315, 409.971 155.502, 411.768 155.725 M 448.750 155.723 C 450.538 155.945, 453.462 155.945, 455.250 155.723 C 457.038 155.502, 455.575 155.320, 452 155.320 C 448.425 155.320, 446.962 155.502, 448.750 155.723 M 462.960 157.523 C 465.413 158.288, 467.574 158.760, 467.761 158.572 C 468.273 158.061, 461.942 155.990, 460.101 156.067 C 459.220 156.104, 460.507 156.759, 462.960 157.523 M 433.569 160.926 C 436.358 162.526, 440.822 166.009, 443.491 168.667 C 447.788 172.948, 448.025 173.072, 445.558 169.757 C 442.820 166.077, 431.861 157.991, 429.636 158.009 C 429.011 158.015, 430.781 159.327, 433.569 160.926 M 478.019 165.707 C 480.898 168.295, 484.538 172.458, 486.108 174.957 C 487.678 177.456, 488.971 179.154, 488.981 178.730 C 489.046 176.081, 475.823 161, 473.435 161 C 473.077 161, 475.139 163.118, 478.019 165.707 M 449.581 177.156 C 450.478 178.892, 451.808 181.929, 452.536 183.906 C 453.264 185.883, 453.886 186.825, 453.920 186 C 453.990 184.263, 449.372 174, 448.520 174 C 448.206 174, 448.683 175.420, 449.581 177.156 M 489.096 180 C 489.060 180.275, 489.668 182.525, 490.448 185 C 491.228 187.475, 491.876 188.600, 491.888 187.500 C 491.907 185.758, 489.271 178.676, 489.096 180 M 454.349 196 C 454.349 200.675, 454.522 202.588, 454.732 200.250 C 454.943 197.912, 454.943 194.088, 454.732 191.750 C 454.522 189.412, 454.349 191.325, 454.349 196 M 492.320 196 C 492.320 199.575, 492.502 201.037, 492.723 199.250 C 492.945 197.463, 492.945 194.537, 492.723 192.750 C 492.502 190.963, 492.320 192.425, 492.320 196 M 452.493 208.033 C 451.937 210.564, 452.379 211.682, 455.163 214.792 C 456.998 216.841, 459.300 219.639, 460.279 221.009 C 461.952 223.352, 461.992 223.361, 460.946 221.162 C 460.335 219.875, 458.258 217.078, 456.331 214.944 C 453.383 211.681, 452.932 210.585, 453.493 208.033 C 453.859 206.365, 453.934 205, 453.659 205 C 453.384 205, 452.859 206.365, 452.493 208.033 M 492.149 213.504 C 493.606 215.152, 496.193 218.726, 497.899 221.446 C 499.605 224.166, 501 226.005, 501 225.533 C 501 223.959, 495.075 215.417, 492.269 212.946 L 489.500 210.507 492.149 213.504 M 501.487 228.646 C 501.807 229.826, 502.492 232.751, 503.009 235.146 L 503.950 239.500 503.484 234.678 C 503.228 232.025, 502.543 229.100, 501.961 228.178 C 501.067 226.758, 500.994 226.829, 501.487 228.646 M 466.272 242 C 466.272 244.475, 466.467 245.488, 466.706 244.250 C 466.944 243.012, 466.944 240.988, 466.706 239.750 C 466.467 238.512, 466.272 239.525, 466.272 242 M 95.272 258 C 95.272 260.475, 95.467 261.488, 95.706 260.250 C 95.944 259.012, 95.944 256.988, 95.706 255.750 C 95.467 254.512, 95.272 255.525, 95.272 258 M 460.852 261.058 C 459.410 263.763, 458.635 265.726, 459.129 265.420 C 460.203 264.757, 464.284 256.951, 463.807 256.474 C 463.624 256.291, 462.294 258.354, 460.852 261.058 M 497.417 263.161 C 496.518 264.899, 493.469 268.579, 490.641 271.338 C 487.320 274.579, 486.623 275.580, 488.671 274.165 C 490.415 272.961, 493.019 270.578, 494.457 268.868 C 497.185 265.627, 500.417 260, 499.551 260 C 499.276 260, 498.316 261.422, 497.417 263.161 M 453.946 270.750 L 450.500 274.500 454.250 271.054 C 456.313 269.158, 458 267.471, 458 267.304 C 458 266.540, 457.154 267.260, 453.946 270.750 M 445.500 276.578 C 443.300 277.892, 441.950 278.973, 442.500 278.980 C 443.702 278.995, 450 275.246, 450 274.515 C 450 273.861, 450.207 273.766, 445.500 276.578 M 439 281.500 C 439 282.875, 439.173 284, 439.383 284 C 439.594 284, 439.982 282.875, 440.245 281.500 C 440.508 280.125, 440.335 279, 439.861 279 C 439.388 279, 439 280.125, 439 281.500 M 477.150 287.250 C 477.305 295.767, 477.724 294.783, 478.217 284.749 C 478.373 281.585, 478.163 278.998, 477.750 278.999 C 477.337 278.999, 477.067 282.712, 477.150 287.250 M 434.202 309.522 C 433.005 311.985, 432.236 314, 432.493 314 C 433.170 314, 437.211 305.877, 436.758 305.425 C 436.549 305.215, 435.398 307.059, 434.202 309.522 M 471.069 311.317 C 467.178 318.103, 463.034 322.733, 457.344 326.652 C 451.407 330.741, 450.300 332.086, 455.158 329.307 C 459.975 326.551, 468.247 318.067, 471.376 312.671 C 472.916 310.016, 474.017 307.683, 473.822 307.489 C 473.627 307.294, 472.388 309.016, 471.069 311.317 M 425.072 321.785 C 421.537 325.417, 419.962 327.443, 421.572 326.286 C 424.384 324.266, 428.129 320.447, 430.922 316.750 C 433.284 313.625, 431.624 315.053, 425.072 321.785 M 445 333.049 C 442.525 334.062, 441.175 334.904, 442 334.919 C 442.825 334.935, 445.300 334.096, 447.500 333.055 C 452.608 330.637, 450.902 330.634, 445 333.049 M 410.523 332.902 C 411.060 333.428, 412.850 334.179, 414.500 334.570 C 418.370 335.488, 417.501 334.635, 413.023 333.121 C 411.110 332.475, 409.985 332.376, 410.523 332.902 M 425.750 336.723 C 427.538 336.945, 430.462 336.945, 432.250 336.723 C 434.038 336.502, 432.575 336.320, 429 336.320 C 425.425 336.320, 423.962 336.502, 425.750 336.723" stroke="none" fill="#9fe484" fill-rule="evenodd"/><path d="M 284.966 327.750 L 279.500 333.500 285.250 328.034 C 290.592 322.956, 291.458 322, 290.716 322 C 290.560 322, 287.972 324.587, 284.966 327.750 M 284.275 338.559 C 286.900 341.341, 288.738 343.929, 288.358 344.309 C 287.978 344.689, 288.979 344.964, 290.583 344.921 C 292.188 344.878, 292.825 344.600, 292 344.303 C 291.175 344.007, 288.025 341.455, 285 338.632 L 279.501 333.500 284.275 338.559" stroke="none" fill="#edae33" fill-rule="evenodd"/></svg>