<svg xmlns="http://www.w3.org/2000/svg" width="512" height="512" viewBox="0 0 512 512" version="1.1"><path d="M 70.898 2.270 C 63.990 6.885, 62.704 14.280, 65.067 35.789 C 70.598 86.133, 96.697 133.408, 136.500 165.179 C 159.084 183.206, 189.060 197.313, 216.749 202.945 C 228.290 205.293, 242.252 206.980, 250.230 206.992 L 255.961 207 256.230 161 C 256.379 135.700, 256.217 114.887, 255.872 114.750 C 255.526 114.612, 253.341 110.703, 251.016 106.062 C 229.068 62.253, 191.812 28.814, 145.801 11.628 C 126.479 4.411, 103.327 0, 84.770 0 C 75.545 0, 73.890 0.271, 70.898 2.270 M 7.241 242.995 C 2.683 245.773, 0.007 250.584, 0.007 256 C 0.007 261.416, 2.683 266.227, 7.241 269.005 C 10.446 270.960, 12.529 270.993, 133.250 270.996 L 256 271 256 256 L 256 241 133.250 241.004 C 12.529 241.007, 10.446 241.040, 7.241 242.995 M 7.241 483.995 C -2.418 489.884, -2.418 504.116, 7.241 510.005 C 10.446 511.960, 12.529 511.993, 133.250 511.996 L 256 512 256 497 L 256 482 133.250 482.004 C 12.529 482.007, 10.446 482.040, 7.241 483.995" stroke="none" fill="#ace444" fill-rule="evenodd"/><path d="M 406.500 1.439 C 380.726 5.178, 353.944 14.776, 332.573 27.931 C 302.494 46.447, 277.085 74.091, 261.428 105.332 L 256 116.163 256 161.582 L 256 207 260.894 207 C 263.586 207, 270.448 206.526, 276.144 205.947 C 310.011 202.503, 343.909 189.024, 372.285 167.716 C 380.835 161.297, 398.416 144.360, 404.690 136.500 C 431.186 103.305, 445.928 64.837, 447.612 24.500 C 448.086 13.159, 447.922 11.062, 446.328 8.071 C 442.861 1.568, 440.280 0.522, 427.181 0.317 C 420.756 0.216, 411.450 0.721, 406.500 1.439 M 256 256 L 256 271 378.750 270.996 C 499.471 270.993, 501.554 270.960, 504.759 269.005 C 514.418 263.116, 514.418 248.884, 504.759 242.995 C 501.554 241.040, 499.471 241.007, 378.750 241.004 L 256 241 256 256 M 8.020 306.695 C 3.123 309.235, -0 314.295, -0 319.690 C 0 325.154, 32.262 438.482, 34.790 441.899 C 40.788 450.006, 53.976 449.719, 59.557 441.359 C 61.265 438.801, 90.929 337.942, 94.186 323.619 C 96.873 311.804, 84.918 301.659, 73.448 306.020 C 66.986 308.476, 65.818 311.083, 56.452 343.943 C 51.583 361.024, 47.288 374.662, 46.907 374.250 C 46.525 373.837, 42.511 360.450, 37.985 344.500 C 33.459 328.550, 29.143 314.298, 28.393 312.829 C 25.021 306.220, 14.842 303.155, 8.020 306.695 M 119.742 307.224 C 117.443 308.557, 115.210 311, 113.992 313.517 C 112.072 317.483, 112 319.756, 112 376.500 C 112 433.326, 112.069 435.512, 114 439.500 C 115.275 442.133, 117.410 444.424, 119.886 445.816 C 123.622 447.915, 124.846 448, 151.500 448 C 177.889 448, 179.410 447.898, 182.996 445.882 C 188.296 442.903, 191.382 437.080, 190.729 431.288 C 190.085 425.574, 187.562 422.102, 181.980 419.250 C 177.915 417.173, 176.245 417, 160.288 417 L 143 417 143 404.588 L 143 392.177 153.930 391.838 C 165.741 391.473, 167.967 390.604, 172.438 384.615 C 175.295 380.789, 175.295 372.211, 172.438 368.385 C 167.967 362.396, 165.741 361.527, 153.930 361.162 L 143 360.823 143 348.412 L 143 336 160.288 336 C 176.245 336, 177.915 335.827, 181.980 333.750 C 187.562 330.898, 190.085 327.426, 190.729 321.712 C 191.382 315.920, 188.296 310.097, 182.996 307.118 C 179.405 305.100, 177.915 305.001, 151.364 305.023 C 124.578 305.045, 123.355 305.130, 119.742 307.224 M 233.754 306.084 C 222.285 308.788, 210.369 318.405, 205.088 329.220 C 200.827 337.946, 200.040 345.321, 200.040 376.500 C 200.040 391.350, 200.486 406.650, 201.031 410.500 C 206.025 445.781, 249.123 460.345, 274.532 435.339 C 281.960 428.029, 285.836 419.531, 287.194 407.578 C 289.863 384.078, 284.750 377.067, 264.907 377.022 C 256.829 377.003, 254.636 377.359, 251.013 379.275 C 240.086 385.053, 240.281 400.573, 251.351 406.154 C 256.720 408.861, 256.526 408.548, 254.626 411.448 C 250.907 417.123, 240.695 418.709, 235.821 414.368 C 231.328 410.366, 231 407.791, 231 376.500 C 231 345.209, 231.328 342.634, 235.821 338.632 C 238.780 335.996, 245.892 335.375, 249.825 337.409 C 253.992 339.564, 255.630 342.307, 256.885 349.227 C 258.210 356.532, 260.128 359.400, 265.399 361.951 C 270.611 364.474, 273.309 364.497, 278.672 362.062 C 285.791 358.830, 288.138 353.117, 286.826 342.215 C 283.861 317.590, 258.420 300.269, 233.754 306.084 M 341.929 306.303 C 331.365 309.300, 321.887 317.441, 316.693 327.977 L 313.500 334.454 313.207 385.183 C 312.921 434.701, 312.963 436.008, 314.971 439.942 C 318.875 447.596, 330.052 450.338, 336.802 445.298 C 342.842 440.789, 343.472 438.921, 343.848 424.428 L 344.196 411 352.521 411 L 360.845 411 361.173 424.431 C 361.459 436.187, 361.761 438.213, 363.592 440.681 C 370.782 450.370, 382.225 450.369, 389.408 440.678 C 391.454 437.918, 391.506 436.778, 391.778 389.311 C 392.080 336.519, 391.851 333.721, 386.471 324.541 C 382.855 318.370, 374.880 311.282, 368.220 308.318 C 361.314 305.245, 348.987 304.301, 341.929 306.303 M 425.092 307.161 C 423.218 308.447, 420.743 310.770, 419.592 312.323 C 417.523 315.116, 417.500 315.816, 417.500 376.401 L 417.500 437.656 420.382 441.434 C 425.350 447.948, 432.795 449.676, 440.019 445.990 C 447.209 442.322, 447.436 441.246, 448 408.178 L 448.500 378.856 466.804 410.898 C 479.596 433.292, 486.033 443.600, 488.182 445.129 C 494.974 449.966, 505.069 448.080, 509.730 441.102 L 512 437.704 512 376.500 L 512 315.296 509.730 311.898 C 508.482 310.029, 505.894 307.713, 503.980 306.752 C 497.024 303.257, 488.568 305.464, 484.270 311.898 C 482.036 315.242, 482 315.768, 481.999 345.398 L 481.997 375.500 463.225 342.653 C 451.117 321.466, 443.439 309.067, 441.596 307.724 C 437.175 304.504, 429.353 304.237, 425.092 307.161 M 346.455 338.455 C 344.016 340.893, 344 341.036, 344 360.455 L 344 380 352.500 380 L 361 380 361 360.455 C 361 341.036, 360.984 340.893, 358.545 338.455 C 355.206 335.115, 349.794 335.115, 346.455 338.455 M 256 497 L 256 512 378.750 511.996 C 499.471 511.993, 501.554 511.960, 504.759 510.005 C 514.418 504.116, 514.418 489.884, 504.759 483.995 C 501.554 482.040, 499.471 482.007, 378.750 482.004 L 256 482 256 497" stroke="none" fill="#15d386" fill-rule="evenodd"/></svg>